<svg xmlns="http://www.w3.org/2000/svg" xmlns:v="https://svgstorm.com"
viewBox = "0 0 376 399"
width="376"
height="399">
<g fill="None" fill-opacity="0.0" stroke="#FEFEFE" stroke-opacity="1.00" stroke-width="0.3"><path d="
M 0.00 399.00 
L 376.00 399.00
L 376.00 0.00
L 0.00 0.00
L 0.00 399.00
M 157.00 12.00 
C 203.73 12.00 251.03 26.19 285.25 58.75 C 319.47 91.32 336.00 137.47 336.00 184.00
C 336.61 190.29 336.60 197.77 336.00 204.00
C 336.00 249.89 319.89 296.29 287.25 329.25 C 254.60 362.21 207.90 379.00 162.00 379.00
C 154.81 379.70 146.99 380.37 139.00 380.00 C 131.01 379.63 122.04 380.27 114.00 380.00 C 105.96 379.73 96.90 380.36 89.00 380.00 C 81.10 379.64 72.55 380.71 65.00 380.00 C 57.45 379.29 46.85 381.46 40.00 380.00 C 33.15 378.54 20.47 383.65 16.00 379.00
C 12.36 338.76 16.98 297.45 16.00 257.00 C 15.02 216.55 14.98 175.52 16.00 135.00 C 17.02 94.48 12.35 52.38 16.00 12.00
C 20.27 7.56 31.39 12.29 38.00 11.00 C 44.61 9.71 54.64 11.60 62.00 11.00 C 69.36 10.40 78.31 11.33 86.00 11.00 C 93.69 10.67 102.20 11.27 110.00 11.00 C 117.80 10.73 126.21 11.39 134.00 11.00 C 141.79 10.61 150.02 11.32 157.00 12.00 Z"/>
</g>
<g fill="None" fill-opacity="0.0" stroke="#D2D2D2" stroke-opacity="1.00" stroke-width="0.3"><path d="
M 16.00 12.00 
C 16.00 11.96 17.00 12.00 17.00 12.00
C 63.67 12.00 110.33 12.00 157.00 12.00
C 150.02 11.32 141.79 10.61 134.00 11.00 C 126.21 11.39 117.80 10.73 110.00 11.00 C 102.20 11.27 93.69 10.67 86.00 11.00 C 78.31 11.33 69.36 10.40 62.00 11.00 C 54.64 11.60 44.61 9.71 38.00 11.00 C 31.39 12.29 20.27 7.56 16.00 12.00 Z"/>
</g>
<g fill="None" fill-opacity="0.0" stroke="#595959" stroke-opacity="1.00" stroke-width="0.3"><path d="
M 16.00 379.00 
C 16.00 379.04 17.00 379.00 17.00 379.00
C 20.64 338.76 16.02 297.45 17.00 257.00 C 17.98 216.55 18.02 175.52 17.00 135.00 C 15.98 94.48 20.65 52.38 17.00 12.00
C 17.00 12.00 16.00 11.96 16.00 12.00
C 12.35 52.38 17.02 94.48 16.00 135.00 C 14.98 175.52 15.02 216.55 16.00 257.00 C 16.98 297.45 12.36 338.76 16.00 379.00 Z"/>
</g>
<g fill="None" fill-opacity="0.0" stroke="#000000" stroke-opacity="1.00" stroke-width="0.3"><path d="
M 17.00 379.00 
C 65.33 378.98 113.67 379.00 162.00 379.00
C 207.90 379.00 254.60 362.21 287.25 329.25 C 319.89 296.29 336.00 249.89 336.00 204.00
C 336.00 197.33 336.00 190.67 336.00 184.00
C 336.00 137.47 319.47 91.32 285.25 58.75 C 251.03 26.19 203.73 12.00 157.00 12.00
C 110.33 12.00 63.67 12.00 17.00 12.00
C 20.65 52.38 15.98 94.48 17.00 135.00 C 18.02 175.52 17.98 216.55 17.00 257.00 C 16.02 297.45 20.64 338.76 17.00 379.00
M 151.00 42.00 
C 202.05 42.00 256.88 60.34 282.77 108.23 C 308.66 156.12 307.94 222.68 288.00 273.00
C 275.09 261.54 264.73 246.03 251.00 236.00
C 249.80 244.22 235.70 251.55 236.36 259.70 C 237.01 267.84 250.26 274.91 252.00 283.00
C 235.63 265.42 223.23 243.24 208.70 223.30 C 194.16 203.37 180.33 182.15 166.00 162.00
C 149.38 184.56 135.72 209.60 120.00 233.00
C 126.61 243.57 138.39 251.08 144.00 262.00
C 124.36 244.55 110.07 221.29 90.00 205.00
C 78.02 224.46 64.35 242.78 52.00 262.00
C 49.44 263.04 49.85 246.96 50.00 241.00 C 50.15 235.04 49.92 223.25 50.00 216.00 C 50.08 208.75 49.94 198.82 50.00 191.00 C 50.06 183.18 49.93 174.06 50.00 166.00 C 50.07 157.94 49.86 149.11 50.00 141.00 C 50.14 132.89 49.71 124.01 50.00 116.00 C 50.29 107.99 49.36 98.70 50.00 91.00 C 50.64 83.30 48.57 72.96 50.00 66.00 C 51.43 59.04 46.37 46.63 51.00 42.00
C 55.72 37.28 67.90 42.46 75.00 41.00 C 82.10 39.54 93.21 41.78 101.00 41.00 C 108.79 40.22 117.96 41.57 126.00 41.00 C 134.04 40.43 143.69 41.29 151.00 42.00 Z"/>
</g>
<g fill="None" fill-opacity="0.0" stroke="#2B2B2B" stroke-opacity="1.00" stroke-width="0.3"><path d="
M 51.00 42.00 
C 84.33 42.00 117.67 42.00 151.00 42.00
C 143.69 41.29 134.04 40.43 126.00 41.00 C 117.96 41.57 108.79 40.22 101.00 41.00 C 93.21 41.78 82.10 39.54 75.00 41.00 C 67.90 42.46 55.72 37.28 51.00 42.00 Z"/>
</g>
<g fill="None" fill-opacity="0.0" stroke="#5F5F5F" stroke-opacity="1.00" stroke-width="0.3"><path d="
M 52.00 262.00 
C 49.67 189.57 51.67 115.18 51.00 42.00
C 46.37 46.63 51.43 59.04 50.00 66.00 C 48.57 72.96 50.64 83.30 50.00 91.00 C 49.36 98.70 50.29 107.99 50.00 116.00 C 49.71 124.01 50.14 132.89 50.00 141.00 C 49.86 149.11 50.07 157.94 50.00 166.00 C 49.93 174.06 50.06 183.18 50.00 191.00 C 49.94 198.82 50.08 208.75 50.00 216.00 C 49.92 223.25 50.15 235.04 50.00 241.00 C 49.85 246.96 49.44 263.04 52.00 262.00 Z"/>
</g>
<g fill="None" fill-opacity="0.0" stroke="#FCFCFC" stroke-opacity="1.00" stroke-width="0.3"><path d="
M 52.00 262.00 
C 64.35 242.78 78.02 224.46 90.00 205.00
C 110.07 221.29 124.36 244.55 144.00 262.00
C 138.39 251.08 126.61 243.57 120.00 233.00
C 135.72 209.60 149.38 184.56 166.00 162.00
C 180.33 182.15 194.16 203.37 208.70 223.30 C 223.23 243.24 235.63 265.42 252.00 283.00
C 250.26 274.91 237.01 267.84 236.36 259.70 C 235.70 251.55 249.80 244.22 251.00 236.00
C 264.73 246.03 275.09 261.54 288.00 273.00
C 307.94 222.68 308.66 156.12 282.77 108.23 C 256.88 60.34 202.05 42.00 151.00 42.00
C 117.67 42.00 84.33 42.00 51.00 42.00
C 51.67 115.18 49.67 189.57 52.00 262.00
M 279.00 260.00 
C 271.49 251.95 257.96 245.73 262.98 232.98 C 267.99 220.23 266.51 202.78 267.00 189.00 C 267.49 175.22 264.29 160.86 260.22 148.78 C 256.16 136.69 251.29 127.44 243.08 117.92 C 234.87 108.40 227.63 103.33 216.31 97.69 C 204.98 92.06 193.48 88.01 179.93 86.07 C 166.37 84.13 148.82 85.25 134.00 85.00 C 119.18 84.75 101.11 85.19 86.00 85.00
C 85.95 99.86 86.07 116.30 86.00 131.00 C 85.93 145.70 86.14 162.88 86.00 177.00 C 85.86 191.12 88.59 206.85 80.23 217.23 C 71.87 227.61 68.86 235.13 61.00 245.00
C 61.00 184.33 61.00 123.67 61.00 63.00
C 123.80 65.03 201.54 51.03 250.75 93.25 C 299.96 135.46 299.52 204.55 279.00 260.00 Z"/>
</g>
<g fill="None" fill-opacity="0.0" stroke="#000000" stroke-opacity="1.00" stroke-width="0.3"><path d="
M 279.00 260.00 
C 299.52 204.55 299.96 135.46 250.75 93.25 C 201.54 51.03 123.80 65.03 61.00 63.00
C 61.00 123.67 61.00 184.33 61.00 245.00
C 68.86 235.13 71.87 227.61 80.23 217.23 C 88.59 206.85 85.86 191.12 86.00 177.00 C 86.14 162.88 85.93 145.70 86.00 131.00 C 86.07 116.30 85.95 99.86 86.00 85.00
C 101.11 85.19 119.18 84.75 134.00 85.00 C 148.82 85.25 166.37 84.13 179.93 86.07 C 193.48 88.01 204.98 92.06 216.31 97.69 C 227.63 103.33 234.87 108.40 243.08 117.92 C 251.29 127.44 256.16 136.69 260.22 148.78 C 264.29 160.86 267.49 175.22 267.00 189.00 C 266.51 202.78 267.99 220.23 262.98 232.98 C 257.96 245.73 271.49 251.95 279.00 260.00 Z"/>
</g>
<g fill="None" fill-opacity="0.0" stroke="#686868" stroke-opacity="1.00" stroke-width="0.3"><path d="
M 336.00 204.00 
C 336.60 197.77 336.61 190.29 336.00 184.00
C 336.00 190.67 336.00 197.33 336.00 204.00 Z"/>
</g>
<g fill="None" fill-opacity="0.0" stroke="#BFBFBF" stroke-opacity="1.00" stroke-width="0.3"><path d="
M 162.00 379.00 
C 113.67 379.00 65.33 378.98 17.00 379.00
C 17.00 379.00 16.00 379.04 16.00 379.00
C 20.47 383.65 33.15 378.54 40.00 380.00 C 46.85 381.46 57.45 379.29 65.00 380.00 C 72.55 380.71 81.10 379.64 89.00 380.00 C 96.90 380.36 105.96 379.73 114.00 380.00 C 122.04 380.27 131.01 379.63 139.00 380.00 C 146.99 380.37 154.81 379.70 162.00 379.00 Z"/>
</g>
<g fill="#FEFEFE" fill-opacity="1.00" stroke="None">
<path d="
M 0.00 399.00 
L 376.00 399.00
L 376.00 0.00
L 0.00 0.00
L 0.00 399.00
M 157.00 12.00 
C 203.73 12.00 251.03 26.19 285.25 58.75 C 319.47 91.32 336.00 137.47 336.00 184.00
C 336.61 190.29 336.60 197.77 336.00 204.00
C 336.00 249.89 319.89 296.29 287.25 329.25 C 254.60 362.21 207.90 379.00 162.00 379.00
C 154.81 379.70 146.99 380.37 139.00 380.00 C 131.01 379.63 122.04 380.27 114.00 380.00 C 105.96 379.73 96.90 380.36 89.00 380.00 C 81.10 379.64 72.55 380.71 65.00 380.00 C 57.45 379.29 46.85 381.46 40.00 380.00 C 33.15 378.54 20.47 383.65 16.00 379.00
C 12.36 338.76 16.98 297.45 16.00 257.00 C 15.02 216.55 14.98 175.52 16.00 135.00 C 17.02 94.48 12.35 52.38 16.00 12.00
C 20.27 7.56 31.39 12.29 38.00 11.00 C 44.61 9.71 54.64 11.60 62.00 11.00 C 69.36 10.40 78.31 11.33 86.00 11.00 C 93.69 10.67 102.20 11.27 110.00 11.00 C 117.80 10.73 126.21 11.39 134.00 11.00 C 141.79 10.61 150.02 11.32 157.00 12.00 Z"/>
</g>
<g fill="#D2D2D2" fill-opacity="1.00" stroke="None">
<path d="
M 16.00 12.00 
C 16.00 11.96 17.00 12.00 17.00 12.00
C 63.67 12.00 110.33 12.00 157.00 12.00
C 150.02 11.32 141.79 10.61 134.00 11.00 C 126.21 11.39 117.80 10.73 110.00 11.00 C 102.20 11.27 93.69 10.67 86.00 11.00 C 78.31 11.33 69.36 10.40 62.00 11.00 C 54.64 11.60 44.61 9.71 38.00 11.00 C 31.39 12.29 20.27 7.56 16.00 12.00 Z"/>
</g>
<g fill="#595959" fill-opacity="1.00" stroke="None">
<path d="
M 16.00 379.00 
C 16.00 379.04 17.00 379.00 17.00 379.00
C 20.64 338.76 16.02 297.45 17.00 257.00 C 17.98 216.55 18.02 175.52 17.00 135.00 C 15.98 94.48 20.65 52.38 17.00 12.00
C 17.00 12.00 16.00 11.96 16.00 12.00
C 12.35 52.38 17.02 94.48 16.00 135.00 C 14.98 175.52 15.02 216.55 16.00 257.00 C 16.98 297.45 12.36 338.76 16.00 379.00 Z"/>
</g>
<g fill="#000000" fill-opacity="1.00" stroke="None">
<path d="
M 17.00 379.00 
C 65.33 378.98 113.67 379.00 162.00 379.00
C 207.90 379.00 254.60 362.21 287.25 329.25 C 319.89 296.29 336.00 249.89 336.00 204.00
C 336.00 197.33 336.00 190.67 336.00 184.00
C 336.00 137.47 319.47 91.32 285.25 58.75 C 251.03 26.19 203.73 12.00 157.00 12.00
C 110.33 12.00 63.67 12.00 17.00 12.00
C 20.65 52.38 15.98 94.48 17.00 135.00 C 18.02 175.52 17.98 216.55 17.00 257.00 C 16.02 297.45 20.64 338.76 17.00 379.00
M 151.00 42.00 
C 202.05 42.00 256.88 60.34 282.77 108.23 C 308.66 156.12 307.94 222.68 288.00 273.00
C 275.09 261.54 264.73 246.03 251.00 236.00
C 249.80 244.22 235.70 251.55 236.36 259.70 C 237.01 267.84 250.26 274.91 252.00 283.00
C 235.63 265.42 223.23 243.24 208.70 223.30 C 194.16 203.37 180.33 182.15 166.00 162.00
C 149.38 184.56 135.72 209.60 120.00 233.00
C 126.61 243.57 138.39 251.08 144.00 262.00
C 124.36 244.55 110.07 221.29 90.00 205.00
C 78.02 224.46 64.35 242.78 52.00 262.00
C 49.44 263.04 49.85 246.96 50.00 241.00 C 50.15 235.04 49.92 223.25 50.00 216.00 C 50.08 208.75 49.94 198.82 50.00 191.00 C 50.06 183.18 49.93 174.06 50.00 166.00 C 50.07 157.94 49.86 149.11 50.00 141.00 C 50.14 132.89 49.71 124.01 50.00 116.00 C 50.29 107.99 49.36 98.70 50.00 91.00 C 50.64 83.30 48.57 72.96 50.00 66.00 C 51.43 59.04 46.37 46.63 51.00 42.00
C 55.72 37.28 67.90 42.46 75.00 41.00 C 82.10 39.54 93.21 41.78 101.00 41.00 C 108.79 40.22 117.96 41.57 126.00 41.00 C 134.04 40.43 143.69 41.29 151.00 42.00 Z"/>
</g>
<g fill="#2B2B2B" fill-opacity="1.00" stroke="None">
<path d="
M 51.00 42.00 
C 84.33 42.00 117.67 42.00 151.00 42.00
C 143.69 41.29 134.04 40.43 126.00 41.00 C 117.96 41.57 108.79 40.22 101.00 41.00 C 93.21 41.78 82.10 39.54 75.00 41.00 C 67.90 42.46 55.72 37.28 51.00 42.00 Z"/>
</g>
<g fill="#5F5F5F" fill-opacity="1.00" stroke="None">
<path d="
M 52.00 262.00 
C 49.67 189.57 51.67 115.18 51.00 42.00
C 46.37 46.63 51.43 59.04 50.00 66.00 C 48.57 72.96 50.64 83.30 50.00 91.00 C 49.36 98.70 50.29 107.99 50.00 116.00 C 49.71 124.01 50.14 132.89 50.00 141.00 C 49.86 149.11 50.07 157.94 50.00 166.00 C 49.93 174.06 50.06 183.18 50.00 191.00 C 49.94 198.82 50.08 208.75 50.00 216.00 C 49.92 223.25 50.15 235.04 50.00 241.00 C 49.85 246.96 49.44 263.04 52.00 262.00 Z"/>
</g>
<g fill="#FCFCFC" fill-opacity="1.00" stroke="None">
<path d="
M 52.00 262.00 
C 64.35 242.78 78.02 224.46 90.00 205.00
C 110.07 221.29 124.36 244.55 144.00 262.00
C 138.39 251.08 126.61 243.57 120.00 233.00
C 135.72 209.60 149.38 184.56 166.00 162.00
C 180.33 182.15 194.16 203.37 208.70 223.30 C 223.23 243.24 235.63 265.42 252.00 283.00
C 250.26 274.91 237.01 267.84 236.36 259.70 C 235.70 251.55 249.80 244.22 251.00 236.00
C 264.73 246.03 275.09 261.54 288.00 273.00
C 307.94 222.68 308.66 156.12 282.77 108.23 C 256.88 60.34 202.05 42.00 151.00 42.00
C 117.67 42.00 84.33 42.00 51.00 42.00
C 51.67 115.18 49.67 189.57 52.00 262.00
M 279.00 260.00 
C 271.49 251.95 257.96 245.73 262.98 232.98 C 267.99 220.23 266.51 202.78 267.00 189.00 C 267.49 175.22 264.29 160.86 260.22 148.78 C 256.16 136.69 251.29 127.44 243.08 117.92 C 234.87 108.40 227.63 103.33 216.31 97.69 C 204.98 92.06 193.48 88.01 179.93 86.07 C 166.37 84.13 148.82 85.25 134.00 85.00 C 119.18 84.75 101.11 85.19 86.00 85.00
C 85.95 99.86 86.07 116.30 86.00 131.00 C 85.93 145.70 86.14 162.88 86.00 177.00 C 85.86 191.12 88.59 206.85 80.23 217.23 C 71.87 227.61 68.86 235.13 61.00 245.00
C 61.00 184.33 61.00 123.67 61.00 63.00
C 123.80 65.03 201.54 51.03 250.75 93.25 C 299.96 135.46 299.52 204.55 279.00 260.00 Z"/>
</g>
<g fill="#000000" fill-opacity="1.00" stroke="None">
<path d="
M 279.00 260.00 
C 299.52 204.55 299.96 135.46 250.75 93.25 C 201.54 51.03 123.80 65.03 61.00 63.00
C 61.00 123.67 61.00 184.33 61.00 245.00
C 68.86 235.13 71.87 227.61 80.23 217.23 C 88.59 206.85 85.86 191.12 86.00 177.00 C 86.14 162.88 85.93 145.70 86.00 131.00 C 86.07 116.30 85.95 99.86 86.00 85.00
C 101.11 85.19 119.18 84.75 134.00 85.00 C 148.82 85.25 166.37 84.13 179.93 86.07 C 193.48 88.01 204.98 92.06 216.31 97.69 C 227.63 103.33 234.87 108.40 243.08 117.92 C 251.29 127.44 256.16 136.69 260.22 148.78 C 264.29 160.86 267.49 175.22 267.00 189.00 C 266.51 202.78 267.99 220.23 262.98 232.98 C 257.96 245.73 271.49 251.95 279.00 260.00 Z"/>
</g>
<g fill="#686868" fill-opacity="1.00" stroke="None">
<path d="
M 336.00 204.00 
C 336.60 197.77 336.61 190.29 336.00 184.00
C 336.00 190.67 336.00 197.33 336.00 204.00 Z"/>
</g>
<g fill="#BFBFBF" fill-opacity="1.00" stroke="None">
<path d="
M 162.00 379.00 
C 113.67 379.00 65.33 378.98 17.00 379.00
C 17.00 379.00 16.00 379.04 16.00 379.00
C 20.47 383.65 33.15 378.54 40.00 380.00 C 46.85 381.46 57.45 379.29 65.00 380.00 C 72.55 380.71 81.10 379.64 89.00 380.00 C 96.90 380.36 105.96 379.73 114.00 380.00 C 122.04 380.27 131.01 379.63 139.00 380.00 C 146.99 380.37 154.81 379.70 162.00 379.00 Z"/>
</g>
</svg>